<svg width="184" height="88" viewBox="0 0 184 88" fill="none" xmlns="http://www.w3.org/2000/svg">
<rect x="92" y="46" width="42" height="42" rx="8" fill="url(#paint0_radial_19_8)"/>
<path d="M125.636 83H123.752V77.1818H125.696C126.266 77.1818 126.755 77.2983 127.164 77.5312C127.574 77.7623 127.887 78.0947 128.105 78.5284C128.324 78.9602 128.434 79.4782 128.434 80.0824C128.434 80.6884 128.324 81.2093 128.102 81.6449C127.882 82.0805 127.564 82.4157 127.147 82.6506C126.731 82.8835 126.227 83 125.636 83ZM124.63 82.233H125.588C126.031 82.233 126.399 82.1496 126.693 81.983C126.986 81.8144 127.206 81.571 127.352 81.2528C127.498 80.9328 127.571 80.5426 127.571 80.0824C127.571 79.6259 127.498 79.2386 127.352 78.9205C127.208 78.6023 126.993 78.3608 126.707 78.196C126.421 78.0312 126.066 77.9489 125.642 77.9489H124.63V82.233Z" fill="#6F7788"/>
<path d="M117.51 67.8691L110.869 74.5098C110.41 74.9688 109.668 74.9687 109.214 74.5098L108.11 73.4063C107.651 72.9473 107.651 72.2051 108.11 71.751L112.817 67.0439L108.11 62.3369C107.651 61.8779 107.651 61.1357 108.11 60.6816L109.214 59.5781C109.673 59.1191 110.415 59.1191 110.869 59.5781L117.51 66.2188C117.969 66.668 117.969 67.4102 117.51 67.8691Z" fill="#6E7788"/>
<rect y="46" width="42" height="42" rx="8" fill="url(#paint1_radial_19_8)"/>
<path d="M32.3299 83H31.3981L33.4918 77.1818H34.506L36.5998 83H35.668L34.0231 78.2386H33.9776L32.3299 83ZM32.4862 80.7216H35.5089V81.4602H32.4862V80.7216Z" fill="#6F7788"/>
<path d="M16.1104 66.2188L22.751 59.5781C23.21 59.1191 23.9521 59.1191 24.4063 59.5781L25.5098 60.6816C25.9687 61.1406 25.9687 61.8828 25.5098 62.3369L20.8027 67.0439L25.5098 71.751C25.9687 72.21 25.9687 72.9521 25.5098 73.4063L24.4062 74.5098C23.9473 74.9687 23.2051 74.9687 22.751 74.5098L16.1104 67.8691C15.6514 67.4199 15.6514 66.6777 16.1104 66.2188Z" fill="#6E7788"/>
<rect x="46" y="46" width="42" height="42" rx="8" fill="url(#paint2_radial_19_8)"/>
<path d="M81.2383 78.7102C81.208 78.4413 81.083 78.233 80.8633 78.0852C80.6436 77.9356 80.3671 77.8608 80.0337 77.8608C79.7951 77.8608 79.5887 77.8987 79.4144 77.9744C79.2402 78.0483 79.1048 78.1506 79.0082 78.2812C78.9135 78.41 78.8661 78.5568 78.8661 78.7216C78.8661 78.8598 78.8983 78.9792 78.9627 79.0795C79.029 79.1799 79.1152 79.2642 79.2212 79.3324C79.3292 79.3987 79.4447 79.4545 79.5678 79.5C79.6909 79.5436 79.8093 79.5795 79.9229 79.608L80.4911 79.7557C80.6767 79.8011 80.8671 79.8627 81.0621 79.9403C81.2572 80.018 81.4381 80.1203 81.6048 80.2472C81.7714 80.3741 81.9059 80.5312 82.0082 80.7188C82.1123 80.9062 82.1644 81.1307 82.1644 81.392C82.1644 81.7216 82.0792 82.0142 81.9087 82.2699C81.7402 82.5256 81.4949 82.7273 81.1729 82.875C80.8529 83.0227 80.4656 83.0966 80.011 83.0966C79.5754 83.0966 79.1985 83.0275 78.8803 82.8892C78.5621 82.7509 78.3131 82.5549 78.1332 82.3011C77.9532 82.0455 77.8538 81.7424 77.8349 81.392H78.7156C78.7326 81.6023 78.8008 81.7775 78.9201 81.9176C79.0413 82.0559 79.1957 82.1591 79.3832 82.2273C79.5726 82.2936 79.7799 82.3267 80.0053 82.3267C80.2534 82.3267 80.4741 82.2879 80.6673 82.2102C80.8623 82.1307 81.0157 82.0208 81.1275 81.8807C81.2392 81.7386 81.2951 81.5729 81.2951 81.3835C81.2951 81.2112 81.2459 81.0701 81.1474 80.9602C81.0508 80.8504 80.9192 80.7595 80.7525 80.6875C80.5877 80.6155 80.4012 80.5521 80.1928 80.4972L79.5053 80.3097C79.0394 80.1828 78.6701 79.9962 78.3974 79.75C78.1265 79.5038 77.9911 79.178 77.9911 78.7727C77.9911 78.4375 78.082 78.1449 78.2638 77.8949C78.4457 77.6449 78.6919 77.4508 79.0025 77.3125C79.3131 77.1723 79.6635 77.1023 80.0536 77.1023C80.4476 77.1023 80.7951 77.1714 81.0962 77.3097C81.3993 77.4479 81.6379 77.6383 81.8121 77.8807C81.9864 78.1212 82.0773 78.3977 82.0849 78.7102H81.2383Z" fill="#6F7788"/>
<path d="M65.9849 71.7437L59.3442 65.103C58.8853 64.644 58.8853 63.9019 59.3442 63.4478L60.4478 62.3442C60.9067 61.8853 61.6489 61.8853 62.103 62.3442L66.8101 67.0513L71.5171 62.3442C71.9761 61.8853 72.7183 61.8853 73.1724 62.3442L74.2759 63.4478C74.7349 63.9067 74.7349 64.6489 74.2759 65.103L67.6353 71.7437C67.186 72.2026 66.4438 72.2026 65.9849 71.7437Z" fill="#6E7788"/>
<rect x="46" width="42" height="42" rx="8" fill="url(#paint3_radial_19_8)"/>
<path d="M77.8683 37L76.2546 31.1818H77.1779L78.3114 35.6875H78.3654L79.5444 31.1818H80.4592L81.6381 35.6903H81.6921L82.8228 31.1818H83.7489L82.1325 37H81.2489L80.0245 32.642H79.979L78.7546 37H77.8683Z" fill="#6F7788"/>
<path d="M67.6353 16.3442L74.2759 22.9849C74.7349 23.4438 74.7349 24.186 74.2759 24.6401L73.1724 25.7437C72.7134 26.2026 71.9712 26.2026 71.5171 25.7437L66.8101 21.0366L62.103 25.7437C61.644 26.2026 60.9019 26.2026 60.4478 25.7437L59.3442 24.6401C58.8853 24.1812 58.8853 23.439 59.3442 22.9849L65.9849 16.3442C66.4341 15.8853 67.1763 15.8853 67.6353 16.3442Z" fill="#6E7788"/>
<rect x="142" y="46" width="42" height="42" rx="8" fill="url(#paint4_radial_19_8)"/>
<path d="M162.049 75.6232L154.397 68.355C153.868 67.8527 153.868 67.0404 154.397 66.5433L155.668 65.3355C156.197 64.8332 157.053 64.8332 157.576 65.3355L163 70.4874L168.424 65.3355C168.953 64.8332 169.808 64.8332 170.332 65.3355L171.603 66.5433C172.132 67.0457 172.132 67.858 171.603 68.355L163.951 75.6232C163.433 76.1256 162.578 76.1256 162.049 75.6232Z" fill="#6E7788"/>
<path d="M164.663 69.7835C164.663 70.5009 164.05 71.0825 163.293 71.0825L162.609 71.0825C161.852 71.0825 161.239 70.5009 161.239 69.7835L161.239 59.299C161.239 58.5816 161.852 58 162.609 58L163.293 58C164.05 58 164.663 58.5816 164.663 59.299L164.663 69.7835Z" fill="#6E7788"/>
<path d="M174.295 83V77.1818H177.903V77.9375H175.173V79.7102H177.645V80.4631H175.173V83H174.295Z" fill="#6F7788"/>
<rect x="142" width="42" height="42" rx="8" fill="url(#paint5_radial_19_8)"/>
<path d="M174.061 37V31.1818H176.135C176.586 31.1818 176.96 31.2595 177.257 31.4148C177.556 31.5701 177.78 31.785 177.928 32.0597C178.075 32.3324 178.149 32.6477 178.149 33.0057C178.149 33.3617 178.074 33.6752 177.925 33.946C177.777 34.215 177.554 34.4242 177.254 34.5739C176.957 34.7235 176.583 34.7983 176.132 34.7983H174.561V34.0426H176.053C176.337 34.0426 176.568 34.0019 176.746 33.9205C176.926 33.839 177.057 33.7206 177.141 33.5653C177.224 33.41 177.266 33.2235 177.266 33.0057C177.266 32.786 177.223 32.5956 177.138 32.4347C177.054 32.2737 176.923 32.1506 176.743 32.0653C176.565 31.9782 176.331 31.9347 176.041 31.9347H174.939V37H174.061ZM176.933 34.375L178.371 37H177.371L175.962 34.375H176.933Z" fill="#6F7788"/>
<path d="M163.951 12.3768L171.603 19.645C172.132 20.1473 172.132 20.9596 171.603 21.4567L170.332 22.6645C169.803 23.1668 168.947 23.1668 168.424 22.6645L163 17.5126L157.576 22.6645C157.047 23.1668 156.192 23.1668 155.668 22.6645L154.397 21.4567C153.868 20.9543 153.868 20.142 154.397 19.645L162.049 12.3768C162.567 11.8744 163.422 11.8744 163.951 12.3768Z" fill="#6E7788"/>
<path d="M161.337 18.2165C161.337 17.4991 161.95 16.9175 162.707 16.9175H163.391C164.148 16.9175 164.761 17.4991 164.761 18.2165V28.701C164.761 29.4184 164.148 30 163.391 30H162.707C161.95 30 161.337 29.4184 161.337 28.701V18.2165Z" fill="#6E7788"/>
<defs>
<radialGradient id="paint0_radial_19_8" cx="0" cy="0" r="1" gradientUnits="userSpaceOnUse" gradientTransform="translate(131.5 88) rotate(-135.365) scale(55.509)">
<stop stop-color="white"/>
<stop offset="1" stop-color="#AAAEBC"/>
</radialGradient>
<radialGradient id="paint1_radial_19_8" cx="0" cy="0" r="1" gradientUnits="userSpaceOnUse" gradientTransform="translate(39.5 88) rotate(-135.365) scale(55.509)">
<stop stop-color="white"/>
<stop offset="1" stop-color="#AAAEBC"/>
</radialGradient>
<radialGradient id="paint2_radial_19_8" cx="0" cy="0" r="1" gradientUnits="userSpaceOnUse" gradientTransform="translate(85.5 88) rotate(-135.365) scale(55.509)">
<stop stop-color="white"/>
<stop offset="1" stop-color="#AAAEBC"/>
</radialGradient>
<radialGradient id="paint3_radial_19_8" cx="0" cy="0" r="1" gradientUnits="userSpaceOnUse" gradientTransform="translate(85.5 42) rotate(-135.365) scale(55.509)">
<stop stop-color="white"/>
<stop offset="1" stop-color="#AAAEBC"/>
</radialGradient>
<radialGradient id="paint4_radial_19_8" cx="0" cy="0" r="1" gradientUnits="userSpaceOnUse" gradientTransform="translate(181.5 88) rotate(-135.365) scale(55.509)">
<stop stop-color="white"/>
<stop offset="1" stop-color="#AAAEBC"/>
</radialGradient>
<radialGradient id="paint5_radial_19_8" cx="0" cy="0" r="1" gradientUnits="userSpaceOnUse" gradientTransform="translate(181.5 42) rotate(-135.365) scale(55.509)">
<stop stop-color="white"/>
<stop offset="1" stop-color="#AAAEBC"/>
</radialGradient>
</defs>
</svg>
