{
    "asset" : {
        "generator" : "Khronos glTF Blender I/O v1.8.19",
        "version" : "2.0"
    },
    "scene" : 0,
    "scenes" : [
        {
            "name" : "Scene",
            "nodes" : [
                4
            ]
        }
    ],
    "nodes" : [
        {
            "mesh" : 0,
            "name" : "body",
            "scale" : [
                0.05341625213623047,
                0.05341625213623047,
                0.12556037306785583
            ],
            "translation" : [
                0,
                0,
                0.11177968233823776
            ]
        },
        {
            "mesh" : 1,
            "name" : "ray",
            "rotation" : [
                0.7071068286895752,
                0,
                0,
                0.7071068286895752
            ],
            "translation" : [
                0,
                0,
                -0.22977513074874878
            ]
        },
        {
            "mesh" : 2,
            "name" : "ring",
            "rotation" : [
                0.7071068286895752,
                0,
                0,
                0.7071068286895752
            ],
            "scale" : [
                0.03537730500102043,
                0.03537730500102043,
                0.03537730500102043
            ],
            "translation" : [
                0,
                0,
                -0.013742557726800442
            ]
        },
        {
            "mesh" : 3,
            "name" : "top",
            "scale" : [
                0.05341625213623047,
                0.05341625213623047,
                0.12556037306785583
            ],
            "translation" : [
                0,
                0,
                0.11177968233823776
            ]
        },
        {
            "children" : [
                0,
                1,
                2,
                3
            ],
            "name" : "camera"
        }
    ],
    "materials" : [
        {
            "doubleSided" : true,
            "name" : "body",
            "pbrMetallicRoughness" : {
                "baseColorFactor" : [
                    0.08714044839143753,
                    0.08714044839143753,
                    0.08714044839143753,
                    1
                ],
                "metallicFactor" : 0,
                "roughnessFactor" : 0.5
            }
        },
        {
            "doubleSided" : true,
            "emissiveFactor" : [
                1,
                0.88700270652771,
                0
            ],
            "name" : "Material.002",
            "pbrMetallicRoughness" : {
                "baseColorFactor" : [
                    1,
                    0.8860658407211304,
                    0,
                    1
                ],
                "metallicFactor" : 0,
                "roughnessFactor" : 0
            }
        },
        {
            "doubleSided" : true,
            "name" : "camera_top",
            "pbrMetallicRoughness" : {
                "baseColorFactor" : [
                    0.800000011920929,
                    0.800000011920929,
                    0.800000011920929,
                    1
                ],
                "metallicFactor" : 0,
                "roughnessFactor" : 0.5
            }
        }
    ],
    "meshes" : [
        {
            "name" : "Cube.002",
            "primitives" : [
                {
                    "attributes" : {
                        "POSITION" : 0,
                        "NORMAL" : 1,
                        "TEXCOORD_0" : 2
                    },
                    "indices" : 3,
                    "material" : 0
                }
            ]
        },
        {
            "name" : "Cone",
            "primitives" : [
                {
                    "attributes" : {
                        "POSITION" : 4,
                        "NORMAL" : 5,
                        "TEXCOORD_0" : 6
                    },
                    "indices" : 7,
                    "material" : 1
                }
            ]
        },
        {
            "name" : "Torus.001",
            "primitives" : [
                {
                    "attributes" : {
                        "POSITION" : 8,
                        "NORMAL" : 9,
                        "TEXCOORD_0" : 10
                    },
                    "indices" : 11,
                    "material" : 2
                }
            ]
        },
        {
            "name" : "Cube",
            "primitives" : [
                {
                    "attributes" : {
                        "POSITION" : 12,
                        "NORMAL" : 13,
                        "TEXCOORD_0" : 14
                    },
                    "indices" : 15,
                    "material" : 2
                }
            ]
        }
    ],
    "accessors" : [
        {
            "bufferView" : 0,
            "componentType" : 5126,
            "count" : 48,
            "max" : [
                1,
                1,
                1
            ],
            "min" : [
                -1,
                -1,
                -1
            ],
            "type" : "VEC3"
        },
        {
            "bufferView" : 1,
            "componentType" : 5126,
            "count" : 48,
            "type" : "VEC3"
        },
        {
            "bufferView" : 2,
            "componentType" : 5126,
            "count" : 48,
            "type" : "VEC2"
        },
        {
            "bufferView" : 3,
            "componentType" : 5123,
            "count" : 84,
            "type" : "SCALAR"
        },
        {
            "bufferView" : 4,
            "componentType" : 5126,
            "count" : 32,
            "max" : [
                0.08814314752817154,
                0.23000001907348633,
                0.08814311772584915
            ],
            "min" : [
                -0.08814314752817154,
                0.004301190376281738,
                -0.08814316987991333
            ],
            "type" : "VEC3"
        },
        {
            "bufferView" : 5,
            "componentType" : 5126,
            "count" : 32,
            "type" : "VEC3"
        },
        {
            "bufferView" : 6,
            "componentType" : 5126,
            "count" : 32,
            "type" : "VEC2"
        },
        {
            "bufferView" : 7,
            "componentType" : 5123,
            "count" : 42,
            "type" : "SCALAR"
        },
        {
            "bufferView" : 8,
            "componentType" : 5126,
            "count" : 240,
            "max" : [
                1.25,
                0.2377641350030899,
                1.25
            ],
            "min" : [
                -1.25,
                -0.2377641350030899,
                -1.25
            ],
            "type" : "VEC3"
        },
        {
            "bufferView" : 9,
            "componentType" : 5126,
            "count" : 240,
            "type" : "VEC3"
        },
        {
            "bufferView" : 10,
            "componentType" : 5126,
            "count" : 240,
            "type" : "VEC2"
        },
        {
            "bufferView" : 11,
            "componentType" : 5123,
            "count" : 360,
            "type" : "SCALAR"
        },
        {
            "bufferView" : 12,
            "componentType" : 5126,
            "count" : 140,
            "max" : [
                1.1535842418670654,
                1.1418933868408203,
                1.1535842418670654
            ],
            "min" : [
                -1.1535842418670654,
                -1,
                -1.2473459243774414
            ],
            "type" : "VEC3"
        },
        {
            "bufferView" : 13,
            "componentType" : 5126,
            "count" : 140,
            "type" : "VEC3"
        },
        {
            "bufferView" : 14,
            "componentType" : 5126,
            "count" : 140,
            "type" : "VEC2"
        },
        {
            "bufferView" : 15,
            "componentType" : 5123,
            "count" : 228,
            "type" : "SCALAR"
        }
    ],
    "bufferViews" : [
        {
            "buffer" : 0,
            "byteLength" : 576,
            "byteOffset" : 0
        },
        {
            "buffer" : 0,
            "byteLength" : 576,
            "byteOffset" : 576
        },
        {
            "buffer" : 0,
            "byteLength" : 384,
            "byteOffset" : 1152
        },
        {
            "buffer" : 0,
            "byteLength" : 168,
            "byteOffset" : 1536
        },
        {
            "buffer" : 0,
            "byteLength" : 384,
            "byteOffset" : 1704
        },
        {
            "buffer" : 0,
            "byteLength" : 384,
            "byteOffset" : 2088
        },
        {
            "buffer" : 0,
            "byteLength" : 256,
            "byteOffset" : 2472
        },
        {
            "buffer" : 0,
            "byteLength" : 84,
            "byteOffset" : 2728
        },
        {
            "buffer" : 0,
            "byteLength" : 2880,
            "byteOffset" : 2812
        },
        {
            "buffer" : 0,
            "byteLength" : 2880,
            "byteOffset" : 5692
        },
        {
            "buffer" : 0,
            "byteLength" : 1920,
            "byteOffset" : 8572
        },
        {
            "buffer" : 0,
            "byteLength" : 720,
            "byteOffset" : 10492
        },
        {
            "buffer" : 0,
            "byteLength" : 1680,
            "byteOffset" : 11212
        },
        {
            "buffer" : 0,
            "byteLength" : 1680,
            "byteOffset" : 12892
        },
        {
            "buffer" : 0,
            "byteLength" : 1120,
            "byteOffset" : 14572
        },
        {
            "buffer" : 0,
            "byteLength" : 456,
            "byteOffset" : 15692
        }
    ],
    "buffers" : [
        {
            "byteLength" : 16148,
            "uri" : "data:application/octet-stream;base64,"
        }
    ]
}
