<svg width="1106" height="352" viewBox="0 0 1106 352" fill="none" xmlns="http://www.w3.org/2000/svg">
<mask id="mask0_27_2" style="mask-type:alpha" maskUnits="userSpaceOnUse" x="0" y="0" width="352" height="352">
<rect width="352" height="352" fill="#FF6464"/>
</mask>
<g mask="url(#mask0_27_2)">
<rect width="352" height="352" fill="#FF6464"/>
<path d="M221.977 193.353L191.28 177.292L194.693 197.739L171.062 189.704C212.597 218.848 240.785 255.549 266.566 302.146C279.931 326.296 308.987 305.951 286.785 281.948C311.21 301.97 332.859 267.223 310.906 257.853C273.346 241.82 241.265 220.903 221.977 193.353H221.977ZM34.3984 206.225C26.2629 218.397 39.2869 236.292 66.4517 225.888C33.6973 245.524 61.5721 273.738 81.2653 251.523C101.466 228.745 125.485 207.598 150.732 197.555L158.222 180.914L138.869 184.609L167.445 149.364C132.265 174.105 94.0775 193.556 49.9226 197.279C42.1372 197.933 37.1105 202.171 34.399 206.226L34.3984 206.225ZM191.787 146.83L217.476 85.6469L202.331 38L182.748 117.418L191.787 146.83ZM273.623 198.706L202.616 162.319L268.642 167.396L273.623 198.706ZM174.345 138.371L119.647 51.6189L120.846 116.856L174.345 138.371ZM159.605 204.899L124.055 251.614L151.644 245.542L159.604 204.898L159.605 204.899ZM208.63 150.221L258.938 127.231L226.054 126.31L208.63 150.221L208.63 150.221ZM170.784 205.442L181.991 275.213L203.474 263.649L170.784 205.442Z" fill="white"/>
</g>
<path d="M432.642 214V68.5454H490.881C501.581 68.5454 510.507 70.1316 517.656 73.3039C524.806 76.4763 530.18 80.8797 533.778 86.5142C537.377 92.1013 539.176 98.5407 539.176 105.832C539.176 111.514 538.04 116.509 535.767 120.818C533.494 125.079 530.369 128.583 526.392 131.329C522.462 134.028 517.964 135.946 512.898 137.082V138.503C518.438 138.74 523.622 140.302 528.452 143.19C533.329 146.079 537.282 150.127 540.313 155.335C543.343 160.496 544.858 166.651 544.858 173.801C544.858 181.519 542.94 188.408 539.105 194.469C535.317 200.482 529.706 205.24 522.273 208.744C514.839 212.248 505.677 214 494.787 214H432.642ZM463.395 188.858H488.466C497.036 188.858 503.286 187.224 507.216 183.957C511.146 180.643 513.111 176.24 513.111 170.747C513.111 166.722 512.14 163.171 510.199 160.094C508.258 157.016 505.488 154.601 501.889 152.849C498.338 151.097 494.1 150.222 489.176 150.222H463.395V188.858ZM463.395 129.412H486.193C490.407 129.412 494.148 128.678 497.415 127.21C500.729 125.695 503.333 123.564 505.227 120.818C507.169 118.072 508.139 114.781 508.139 110.946C508.139 105.69 506.269 101.453 502.528 98.2329C498.835 95.0132 493.58 93.4034 486.761 93.4034H463.395V129.412Z" fill="white"/>
<path d="M698.533 141.273C698.533 157.134 695.527 170.629 689.514 181.756C683.548 192.883 675.404 201.382 665.082 207.253C654.807 213.077 643.254 215.989 630.423 215.989C617.497 215.989 605.896 213.053 595.621 207.182C585.347 201.311 577.227 192.812 571.261 181.685C565.295 170.558 562.312 157.087 562.312 141.273C562.312 125.411 565.295 111.917 571.261 100.79C577.227 89.6628 585.347 81.1874 595.621 75.3636C605.896 69.4924 617.497 66.5568 630.423 66.5568C643.254 66.5568 654.807 69.4924 665.082 75.3636C675.404 81.1874 683.548 89.6628 689.514 100.79C695.527 111.917 698.533 125.411 698.533 141.273ZM667.354 141.273C667.354 130.998 665.816 122.333 662.738 115.278C659.708 108.223 655.423 102.873 649.883 99.2272C644.343 95.5814 637.856 93.7585 630.423 93.7585C622.989 93.7585 616.502 95.5814 610.962 99.2272C605.423 102.873 601.114 108.223 598.036 115.278C595.006 122.333 593.491 130.998 593.491 141.273C593.491 151.547 595.006 160.212 598.036 167.267C601.114 174.322 605.423 179.672 610.962 183.318C616.502 186.964 622.989 188.787 630.423 188.787C637.856 188.787 644.343 186.964 649.883 183.318C655.423 179.672 659.708 174.322 662.738 167.267C665.816 160.212 667.354 151.547 667.354 141.273Z" fill="white"/>
<path d="M842.976 68.5454V214H816.413L753.132 122.452H752.067V214H721.314V68.5454H748.303L811.087 160.023H812.365V68.5454H842.976Z" fill="white"/>
<path d="M868.384 214V68.5454H966.396V93.9005H899.137V128.56H961.353V153.915H899.137V188.645H966.68V214H868.384Z" fill="white"/>
<path d="M1069.75 110.378C1069.18 104.649 1066.74 100.198 1062.44 97.0255C1058.13 93.8532 1052.28 92.267 1044.89 92.267C1039.87 92.267 1035.64 92.9772 1032.18 94.3977C1028.72 95.7708 1026.07 97.6884 1024.23 100.151C1022.43 102.613 1021.53 105.406 1021.53 108.531C1021.43 111.135 1021.98 113.408 1023.16 115.349C1024.39 117.291 1026.07 118.972 1028.2 120.392C1030.33 121.765 1032.8 122.972 1035.59 124.014C1038.38 125.008 1041.37 125.861 1044.54 126.571L1057.61 129.696C1063.95 131.116 1069.78 133.01 1075.08 135.378C1080.38 137.745 1084.97 140.657 1088.86 144.114C1092.74 147.57 1095.75 151.642 1097.88 156.329C1100.05 161.017 1101.17 166.391 1101.21 172.452C1101.17 181.353 1098.89 189.071 1094.4 195.605C1089.95 202.092 1083.51 207.134 1075.08 210.733C1066.7 214.284 1056.59 216.06 1044.75 216.06C1033.01 216.06 1022.78 214.26 1014.07 210.662C1005.4 207.063 998.634 201.737 993.757 194.682C988.928 187.579 986.394 178.796 986.158 168.332H1015.92C1016.25 173.209 1017.64 177.281 1020.11 180.548C1022.62 183.768 1025.95 186.206 1030.12 187.864C1034.33 189.473 1039.09 190.278 1044.4 190.278C1049.6 190.278 1054.13 189.521 1057.96 188.006C1061.84 186.49 1064.85 184.383 1066.98 181.685C1069.11 178.986 1070.18 175.884 1070.18 172.381C1070.18 169.114 1069.21 166.367 1067.27 164.142C1065.37 161.917 1062.58 160.023 1058.89 158.46C1055.24 156.898 1050.76 155.477 1045.46 154.199L1029.62 150.222C1017.36 147.239 1007.68 142.575 1000.58 136.23C993.473 129.885 989.946 121.339 989.993 110.591C989.946 101.784 992.289 94.0899 997.024 87.5085C1001.81 80.927 1008.36 75.7897 1016.7 72.0965C1025.03 68.4034 1034.5 66.5568 1045.11 66.5568C1055.9 66.5568 1065.32 68.4034 1073.37 72.0965C1081.47 75.7897 1087.77 80.927 1092.27 87.5085C1096.76 94.0899 1099.08 101.713 1099.23 110.378H1069.75Z" fill="white"/>
<path d="M905.325 274V237.636H919.884C922.559 237.636 924.791 238.033 926.578 238.826C928.366 239.619 929.709 240.72 930.609 242.128C931.508 243.525 931.958 245.135 931.958 246.958C931.958 248.379 931.674 249.627 931.106 250.704C930.538 251.77 929.756 252.646 928.762 253.332C927.78 254.007 926.655 254.486 925.389 254.771V255.126C926.773 255.185 928.07 255.575 929.277 256.298C930.496 257.02 931.485 258.032 932.242 259.334C933 260.624 933.379 262.163 933.379 263.95C933.379 265.88 932.899 267.602 931.94 269.117C930.993 270.62 929.591 271.81 927.732 272.686C925.874 273.562 923.583 274 920.861 274H905.325ZM913.013 267.714H919.281C921.423 267.714 922.986 267.306 923.968 266.489C924.951 265.661 925.442 264.56 925.442 263.187C925.442 262.181 925.199 261.293 924.714 260.523C924.229 259.754 923.536 259.15 922.636 258.712C921.749 258.274 920.689 258.055 919.458 258.055H913.013V267.714ZM913.013 252.853H918.712C919.766 252.853 920.701 252.669 921.518 252.303C922.346 251.924 922.997 251.391 923.471 250.704C923.956 250.018 924.199 249.195 924.199 248.236C924.199 246.923 923.731 245.863 922.796 245.058C921.873 244.253 920.559 243.851 918.854 243.851H913.013V252.853Z" fill="white"/>
<path d="M938.381 274V237.636H952.728C955.474 237.636 957.818 238.128 959.759 239.11C961.712 240.081 963.198 241.46 964.216 243.247C965.246 245.023 965.76 247.112 965.76 249.515C965.76 251.93 965.24 254.007 964.198 255.747C963.156 257.475 961.647 258.801 959.67 259.724C957.705 260.648 955.326 261.109 952.533 261.109H942.927V254.93H951.29C952.757 254.93 953.977 254.729 954.947 254.327C955.918 253.924 956.64 253.321 957.114 252.516C957.599 251.711 957.841 250.71 957.841 249.515C957.841 248.307 957.599 247.289 957.114 246.461C956.64 245.632 955.912 245.005 954.93 244.579C953.959 244.141 952.734 243.922 951.254 243.922H946.069V274H938.381ZM958.019 257.452L967.057 274H958.569L949.727 257.452H958.019Z" fill="white"/>
<path d="M1004.61 255.818C1004.61 259.784 1003.86 263.157 1002.35 265.939C1000.86 268.721 998.828 270.845 996.247 272.313C993.678 273.769 990.79 274.497 987.582 274.497C984.351 274.497 981.451 273.763 978.882 272.295C976.313 270.828 974.283 268.703 972.792 265.921C971.3 263.139 970.555 259.772 970.555 255.818C970.555 251.853 971.3 248.479 972.792 245.697C974.283 242.916 976.313 240.797 978.882 239.341C981.451 237.873 984.351 237.139 987.582 237.139C990.79 237.139 993.678 237.873 996.247 239.341C998.828 240.797 1000.86 242.916 1002.35 245.697C1003.86 248.479 1004.61 251.853 1004.61 255.818ZM996.815 255.818C996.815 253.249 996.43 251.083 995.661 249.32C994.903 247.556 993.832 246.218 992.447 245.307C991.062 244.395 989.441 243.94 987.582 243.94C985.724 243.94 984.102 244.395 982.717 245.307C981.332 246.218 980.255 247.556 979.486 249.32C978.728 251.083 978.349 253.249 978.349 255.818C978.349 258.387 978.728 260.553 979.486 262.317C980.255 264.08 981.332 265.418 982.717 266.329C984.102 267.241 985.724 267.697 987.582 267.697C989.441 267.697 991.062 267.241 992.447 266.329C993.832 265.418 994.903 264.08 995.661 262.317C996.43 260.553 996.815 258.387 996.815 255.818Z" fill="white"/>
<path d="M1010.31 274V237.636H1017.99V253.67H1018.47L1031.56 237.636H1040.77L1027.28 253.918L1040.93 274H1031.74L1021.78 259.05L1017.99 263.666V274H1010.31Z" fill="white"/>
<path d="M1044.78 274V237.636H1069.28V243.975H1052.47V252.64H1068.02V258.979H1052.47V267.661H1069.35V274H1044.78Z" fill="white"/>
<path d="M1105.81 237.636V274H1099.17L1083.35 251.113H1083.08V274H1075.39V237.636H1082.14L1097.84 260.506H1098.16V237.636H1105.81Z" fill="white"/>
</svg>
